<?xml version="1.0" encoding="iso-8859-1"?>
<!-- Generator: Adobe Illustrator 19.0.0, SVG Export Plug-In . SVG Version: 6.00 Build 0)  -->
<svg version="1.1" id="Capa_1" xmlns="http://www.w3.org/2000/svg" xmlns:xlink="http://www.w3.org/1999/xlink" x="0px" y="0px"
	 viewBox="0 0 512 512" style="enable-background:new 0 0 512 512;" xml:space="preserve">
<g>
	<g>
		<path d="M336,160c-8.8,0-16-7.2-16-16s7.2-16,16-16h32c8.832,0,16-7.168,16-16c0-8.832-7.168-16-16-16h-16V80
			c0-8.832-7.168-16-16-16c-8.832,0-16,7.168-16,16v18.944c-18.592,6.624-32,24.224-32,45.056c0,26.464,21.536,48,48,48
			c8.8,0,16,7.2,16,16c0,1.6-0.288,3.2-0.896,5.248c-2.56,8.48,2.208,17.408,10.656,19.968c1.568,0.48,3.136,0.672,4.672,0.672
			c6.88,0,13.216-4.448,15.328-11.328c1.536-5.12,2.24-9.76,2.24-14.56C384,181.536,362.464,160,336,160z"/>
	</g>
</g>
<g>
	<g>
		<path d="M336,0c-70.24,0-133.792,41.728-161.888,106.24c-3.488,8.096,0.224,17.536,8.32,21.056
			c8.064,3.36,17.536-0.224,21.056-8.32C226.464,66.144,278.496,32,336,32c79.392,0,144,64.608,144,144
			c0,57.504-34.144,109.536-87.008,132.512c-8.096,3.52-11.808,12.96-8.32,21.056c2.624,6.016,8.544,9.632,14.688,9.632
			c2.112,0,4.32-0.448,6.368-1.312C470.272,309.792,512,246.24,512,176C512,78.976,433.024,0,336,0z"/>
	</g>
</g>
<g>
	<g>
		<path d="M176,320c-8.8,0-16-7.2-16-16s7.2-16,16-16h32c8.832,0,16-7.168,16-16c0-8.832-7.168-16-16-16h-16v-16
			c0-8.832-7.168-16-16-16c-8.832,0-16,7.168-16,16v18.944c-18.592,6.624-32,24.224-32,45.056c0,26.464,21.536,48,48,48
			c8.8,0,16,7.2,16,16s-7.2,16-16,16h-32c-8.832,0-16,7.168-16,16c0,8.832,7.168,16,16,16h16v16c0,8.832,7.168,16,16,16
			c8.832,0,16-7.168,16-16v-18.944c18.592-6.624,32-24.224,32-45.056C224,341.536,202.464,320,176,320z"/>
	</g>
</g>
<g>
	<g>
		<path d="M176,160C78.976,160,0,238.976,0,336s78.976,176,176,176s176-78.976,176-176S273.024,160,176,160z M176,480
			c-79.392,0-144-64.608-144-144s64.608-144,144-144s144,64.608,144,144S255.392,480,176,480z"/>
	</g>
</g>
<g>
</g>
<g>
</g>
<g>
</g>
<g>
</g>
<g>
</g>
<g>
</g>
<g>
</g>
<g>
</g>
<g>
</g>
<g>
</g>
<g>
</g>
<g>
</g>
<g>
</g>
<g>
</g>
<g>
</g>
</svg>
