<?xml version="1.0" encoding="iso-8859-1"?>
<!-- Generator: Adobe Illustrator 19.0.0, SVG Export Plug-In . SVG Version: 6.00 Build 0)  -->
<svg version="1.1" id="Capa_1" xmlns="http://www.w3.org/2000/svg" xmlns:xlink="http://www.w3.org/1999/xlink" x="0px" y="0px"
	 viewBox="0 0 512 512" style="enable-background:new 0 0 512 512;" xml:space="preserve">
<g>
	<g>
		<path d="M177.28,170.827c-16.66,0-30.214,16.355-30.214,36.457c0,20.102,13.554,36.456,30.214,36.456s30.214-16.354,30.214-36.456
			S193.94,170.827,177.28,170.827z M177.28,228.715c-8.233,0-15.189-9.815-15.189-21.431c0-11.618,6.956-21.432,15.189-21.432
			c8.233,0,15.189,9.815,15.189,21.432C192.469,218.901,185.513,228.715,177.28,228.715z"/>
	</g>
</g>
<g>
	<g>
		<path d="M334.861,170.827c-16.66,0-30.214,16.355-30.214,36.457s13.554,36.456,30.214,36.456s30.214-16.354,30.214-36.456
			S351.521,170.827,334.861,170.827z M334.859,228.715c-8.233,0-15.189-9.816-15.189-21.431c0-11.618,6.956-21.432,15.189-21.432
			s15.189,9.815,15.189,21.432C350.048,218.901,343.092,228.715,334.859,228.715z"/>
	</g>
</g>
<g>
	<g>
		<path d="M260.995,323.002c-17.366,3.872-33.067,11.458-43.077,20.814c-4.951,4.627-1.67,13.001,5.132,13.001
			c1.837,0,3.679-0.67,5.128-2.024c23.035-21.528,74.074-25.249,86.196-11.033c2.693,3.157,7.434,3.534,10.591,0.842
			C336.332,334.91,309.077,312.284,260.995,323.002z"/>
	</g>
</g>
<g>
	<g>
		<path d="M414.553,54.965c-3.258-2.567-7.981-2.007-10.55,1.251c-2.567,3.258-2.008,7.982,1.251,10.55
			c133.547,105.233,118.782,312.66-28.736,397.83c-77.815,44.928-173.383,42.968-249.404-5.112
			c-3.506-2.217-8.146-1.173-10.365,2.334c-2.218,3.507-1.173,8.148,2.334,10.365c79.319,50.164,180.834,53.989,264.948,5.424
			C540.7,387.156,556.488,166.805,414.553,54.965z"/>
	</g>
</g>
<g>
	<g>
		<path d="M384.659,34.661C239.462-49.526,52.647,26.364,8.872,189.74c-26.571,99.165,8.799,199.35,81.123,261.015
			c1.414,1.206,3.147,1.796,4.87,1.796c6.971,0,10.167-8.719,4.878-13.229C-26.638,331.565-8.566,130.603,135.623,47.357
			C210.727,3.997,302.6,4.451,377.124,47.66c3.587,2.081,8.188,0.859,10.267-2.732C389.472,41.339,388.249,36.742,384.659,34.661z"
			/>
	</g>
</g>
<g>
</g>
<g>
</g>
<g>
</g>
<g>
</g>
<g>
</g>
<g>
</g>
<g>
</g>
<g>
</g>
<g>
</g>
<g>
</g>
<g>
</g>
<g>
</g>
<g>
</g>
<g>
</g>
<g>
</g>
</svg>
